# xmcd CD database file
#
# Track frame offsets:
#	150
#	18800
#	41775
#	60425
#
# Disc length: 1108 seconds
#
# Revision: 0
# Processed by: cddbd v1.5.1PL2 Copyright (c) Steve Scherf et al.
# Submitted via: CDex 1.51
#
DISCID=27045204
DTITLE=ＳＷＥＥＴ　ＢＥＡＴ　ＳＷＩＮＧ＋ＨＩＫＡＲＵ - Ｇｏ！Ｐａｒａｄｉｓｅ〜ＪＲ西日本ＴＶＣＦイメージソング〜
DYEAR=1995
DGENRE=JPop
TTITLE0=Ｇｏ！Ｐａｒａｄｉｓｅ〜ＳＷＥＥＴ　ＢＥＡＴ　ＳＷＩＮＧ＋ＨＩＫＡＲＵ　Ｖｅｒｓｉｏｎ〜
TTITLE1=Ｇｏ！Ｐａｒａｄｉｓｅ〜ＳＷＥＥＴ　ＢＥＡＴ　ＳＷＩＮＧ　Ｖｅｒｓｉｏｎ〜
TTITLE2=Ｇｏ！Ｐａｒａｄｉｓｅ〜ＳＷＥＥＴ　ＢＥＡＴ　ＳＷＩＮＧ＋ＨＩＫＡＲＵ　Ｖｅｒｓｉｏｎ〜（Ｏｒｉｇｉｎａｌ　Ｋａｒａｏｋｅ）
TTITLE3=Ｇｏ！Ｐａｒａｄｉｓｅ〜ＳＷＥＥＴ　ＢＥＡＴ　ＳＷＩＮＧ　Ｖｅｒｓｉｏｎ〜（Ｏｒｉｇｉｎａｌ　Ｋａｒａｏｋｅ）
EXTD=YEAR: 1995/8/19
EXTT0=
EXTT1=
EXTT2=
EXTT3=
PLAYORDER=
